<svg xmlns="http://www.w3.org/2000/svg" width="20" height="21.5" viewBox="30.4 23.7 20 21.5" enable-background="new 30.4 23.7 20 21.5"><path d="M33 23.7c-.1 0-.3.1-.4.2l-2.1 2.1c-.2.2-.2.6 0 .9l2.1 2.1c.2.2.6.2.9 0s.2-.6 0-.9l-1.1-1.1h5.2c.3 0 .6-.3.6-.6s-.3-.6-.6-.6h-5.2l1.1-1.1c.2-.2.3-.6 0-.9-.1-.1-.2-.1-.5-.1zm14.6 0c-.3 0-.6.3-.6.7 0 .1.1.3.2.4l1.1 1.1h-5.2c-.3 0-.6.3-.6.6s.2.5.6.5h5.2l-1.1 1.1c-.2.2-.2.6 0 .9s.6.2.9 0l2.1-2.1c.2-.2.2-.6 0-.9l-2.1-2.1c-.2-.2-.3-.2-.5-.2zm-7.3 1.3c-.8 0-1.4.6-1.4 1.4v8.8c-.5-.6-1.1-1.3-1.6-1.6-.3-.2-.7-.4-1.1-.4-.7 0-1.2.5-1.3 1.2-.1.8.4 1.6.8 2.2l1.5 2.4 1.2 1.9c.6 1 .7 1.8.7 2.9v1.2c0 .1.1.2.2.2h8.2c.1 0 .2-.1.2-.2.1-.8.2-1.6.4-2.4.7-2 1.3-3.9 1.3-6.4v-4c0-.8-.6-1.4-1.4-1.4-.4 0-.7.1-1.2.6 0-.8-.6-1.4-1.4-1.4-.5 0-.9.2-1.2.6-.1-.7-.7-1.2-1.4-1.2-.5 0-.9.2-1.2.6v-3.5c.2-.8-.5-1.5-1.3-1.5z"/></svg>